<svg xmlns="http://www.w3.org/2000/svg" viewBox="0 0 180 180" fill="none" shape-rendering="auto" aria-hidden="true" width="512" height="512"><!-- Generated by DiceBear (https://www.dicebear.com) --><metadata xmlns:rdf="http://www.w3.org/1999/02/22-rdf-syntax-ns#" xmlns:xsi="http://www.w3.org/2001/XMLSchema-instance" xmlns:dc="http://purl.org/dc/elements/1.1/" xmlns:dcterms="http://purl.org/dc/terms/"><rdf:RDF><rdf:Description><dc:title>Bottts</dc:title><dc:creator>Pablo Stanley</dc:creator><dc:source xsi:type="dcterms:URI">https://bottts.com/</dc:source><dcterms:license xsi:type="dcterms:URI">https://bottts.com/</dcterms:license><dc:rights>Remix of “Bottts” (https://bottts.com/) by “Pablo Stanley”, licensed under “Free for personal and commercial use” (https://bottts.com/)</dc:rights></rdf:Description></rdf:RDF></metadata><defs><g id="sides-squareAssymetric-2ac81753"><mask id="sidesSquareAssymetric-a" style="mask-type:luminance"><rect x="4" y="31" width="36" height="30" rx="4" fill="white"/><rect x="14" y="15" width="26" height="30" rx="4" fill="white"/><rect x="133" y="23" width="36" height="30" rx="4" fill="white"/><rect x="128" y="8" width="36" height="60" rx="4" fill="white"/></mask><g mask="url(#sidesSquareAssymetric-a)"><path d="M-6 0h180v76H-6z" fill="#15a876"/><path d="M-6 0h180v76H-6z" fill="white" fill-opacity=".3"/><path fill="black" fill-opacity=".1" d="M-6 47h180v29H-6z"/><circle cx="155" cy="20" r="5" fill="white" fill-opacity=".6"/><circle cx="155" cy="36" r="5" fill="white" fill-opacity=".6"/></g></g><g id="top-radar-2ac81753"><mask id="topRadar-a" style="mask-type:luminance"><path fill-rule="evenodd" clip-rule="evenodd" d="M35.8.7A20 20 0 1 0 64.08 29" fill="white"/><circle cx="59.13" cy="5.66" r="4" transform="rotate(45 59.13 5.66)" fill="white"/><path fill="white" d="m56.307 7.077 1.414 1.414-18.384 18.385-1.415-1.414zM39.94 28.71h4v24h-4z"/></mask><g mask="url(#topRadar-a)"><path d="M-8 .6H92v52H-8z" fill="#15a876"/><path d="M-8 .6H92v52H-8z" fill="white" fill-opacity=".3"/><path fill-rule="evenodd" clip-rule="evenodd" d="M35.8.7A20 20 0 1 0 64.08 29" fill="white" fill-opacity=".2"/><circle cx="59.13" cy="8" r="5.66" transform="rotate(45 59.13 8)" fill="white" fill-opacity=".8"/></g></g><g id="head-round01-2ac81753"><mask id="headRound01-a" style="mask-type:luminance"><path fill-rule="evenodd" clip-rule="evenodd" d="M66 0c58.35 0 64 40.69 64 78 0 33.32-25.47 42-64 42-37.46 0-66-8.69-66-42C0 40.69 7.65 0 66 0" fill="white"/></mask><g mask="url(#headRound01-a)"><path d="M-4-2h138v124H-4z" fill="#15a876"/></g></g><g id="mouth-smile02-2ac81753"><path fill-rule="evenodd" clip-rule="evenodd" d="M14 6.22C14 17.78 20.47 24 34 24c13.52 0 20-6.34 20-17.78C54 5.5 53.17 4 51 4H17c-2.05 0-3 1.38-3 2.22" fill="black" fill-opacity=".8"/><mask id="mouthSmile02-a" style="mask-type:luminance"><path fill-rule="evenodd" clip-rule="evenodd" d="M14 6.22C14 17.78 20.47 24 34 24c13.52 0 20-6.34 20-17.78C54 5.5 53.17 4 51 4H17c-2.05 0-3 1.38-3 2.22" fill="white"/></mask><g mask="url(#mouthSmile02-a)"><rect x="26" y="-2" width="16" height="14" rx="2" fill="white"/></g></g><g id="eyes-eva-2ac81753"><path fill-rule="evenodd" clip-rule="evenodd" d="M53 0c34.75 0 49 17.47 49 31S82.4 48 53 48C23.95 48 2 44.53 2 31S17.11 0 53 0" fill="black" fill-opacity=".8"/><path fill-rule="evenodd" clip-rule="evenodd" d="M28.82 34.65C22.29 33.3 17.58 28.31 18.3 23.5c.72-4.78 6.6-7.57 13.12-6.22 6.53 1.36 11.24 6.35 10.52 11.15s-6.6 7.59-13.12 6.23m46.6 0C68.9 36 63.02 33.2 62.3 28.4s4-9.8 10.52-11.15 12.4 1.44 13.12 6.24-4 9.8-10.52 11.14" fill="#25A6F5"/></g><clipPath id="clip-2ac81753"><rect width="180" height="180" rx="0" ry="0"/></clipPath></defs><g clip-path="url(#clip-2ac81753)"><use transform="translate(6 66)" href="#sides-squareAssymetric-2ac81753"/><use transform="translate(49 -.6)" href="#top-radar-2ac81753"/><use transform="translate(25 44)" href="#head-round01-2ac81753"/><use transform="translate(56 128)" href="#mouth-smile02-2ac81753"/><use transform="translate(38 76)" href="#eyes-eva-2ac81753"/></g></svg>